<?xml version="1.0" standalone="no"?>
<!DOCTYPE svg PUBLIC "-//W3C//DTD SVG 20010904//EN"
 "http://www.w3.org/TR/2001/REC-SVG-20010904/DTD/svg10.dtd">
<svg version="1.0" xmlns="http://www.w3.org/2000/svg"
 width="260.000000pt" height="260.000000pt" viewBox="0 0 260.000000 260.000000"
 preserveAspectRatio="xMidYMid meet">
<metadata>
Created by potrace 1.11, written by Peter Selinger 2001-2013
</metadata>
<g transform="translate(0.000000,260.000000) scale(0.100000,-0.100000)"
fill="#000000" stroke="none">
<path d="M0 1300 l0 -1300 1300 0 1300 0 0 1300 0 1300 -1300 0 -1300 0 0
-1300z m1830 1066 c0 -42 -2 -44 -35 -53 l-35 -8 96 -144 c53 -79 99 -139 104
-135 4 5 48 71 98 146 l91 136 -39 7 c-40 7 -40 7 -40 51 l0 44 165 0 165 0 0
-44 c0 -46 -10 -56 -54 -56 -29 0 -31 -2 -181 -214 -95 -135 -124 -184 -118
-196 4 -10 67 -101 138 -203 l130 -186 48 -7 47 -7 0 -49 0 -48 -162 2 -163 3
0 45 c0 45 0 45 37 48 l38 3 -101 151 c-57 84 -105 146 -109 142 -5 -5 -52
-72 -104 -149 l-95 -140 37 -5 c36 -5 37 -6 37 -50 l0 -45 -147 -3 c-82 -1
-148 -4 -148 -5 0 -1 78 -207 173 -457 l173 -455 72 -9 72 -9 0 -83 0 -84
-280 0 -280 0 0 84 0 84 48 7 c73 10 92 16 92 29 0 13 -107 312 -121 338 -9
17 -36 18 -399 18 l-389 0 -21 -57 c-81 -215 -112 -305 -107 -309 2 -3 34 -10
71 -16 l66 -11 0 -83 0 -84 -275 0 -275 0 0 84 0 85 69 7 69 6 125 322 c68
176 223 576 343 889 l219 567 114 -2 114 -3 145 -381 145 -381 46 8 c54 10 48
3 211 236 l122 174 -56 82 c-154 223 -222 312 -241 315 -64 9 -65 10 -65 57
l0 45 160 0 160 0 0 -44z"/>
<path d="M1066 1878 c-148 -396 -292 -795 -289 -800 2 -5 141 -8 309 -8 241 0
304 3 304 13 0 17 -290 820 -300 830 -4 5 -15 -11 -24 -35z"/>
</g>
</svg>
